PathFileType	4	(X/Y/Z)	./resultDataOpenSim/trcMotMarkerGrf/sub06/qtm-04-07.trc
DataRate	CameraRate	NumFrames	NumMarkers	Units	OrigDataRate	OrigDataStartFrame	OrigNumFrames
250.000000	250.000000	11	24	m	250.000000	485	554
Frame#	Time	L.Toe.Tip			R.Toe.Tip			L.Ankle.Lat			R.Ankle.Lat			L.Ankle.Med			R.Ankle.Med			L.Heel			R.Heel			L.Knee.Lat			R.Knee.Lat			L.Knee.Med			R.Knee.Med			L.Thigh.Upper			R.Thigh.Upper			L.ASIS			R.ASIS			V.Sacral			L.Acromium			R.Acromium			C7			L.Elbow			R.Elbow			L.Wrist.Lat			R.Wrist.Lat
		X1	Y1	Z1	X2	Y2	Z2	X3	Y3	Z3	X4	Y4	Z4	X5	Y5	Z5	X6	Y6	Z6	X7	Y7	Z7	X8	Y8	Z8	X9	Y9	Z9	X10	Y10	Z10	X11	Y11	Z11	X12	Y12	Z12	X13	Y13	Z13	X14	Y14	Z14	X15	Y15	Z15	X16	Y16	Z16	X17	Y17	Z17	X18	Y18	Z18	X19	Y19	Z19	X20	Y20	Z20	X21	Y21	Z21	X22	Y22	Z22	X23	Y23	Z23	X24	Y24	Z24

485	1.936	1.6461733	0.033626056	-0.056375587	1.3313186	0.083250367	0.12722562	1.5238663	0.067471146	-0.084065074	1.2811384	0.20961966	0.14520629	1.5202633	0.081014276	0.0027542066	1.3196982	0.20698891	0.06555162	1.4451201	0.042006364	-0.044336222	1.239353	0.24058009	0.078190763	1.6207643	0.43137986	-0.090187676	1.584999	0.43096929	0.18722361	1.5849319	0.42808136	0.025373313	1.5932136	0.40865224	0.052208099	1.5252551	0.81799504	-0.16205373	1.4708076	0.78164152	0.17784283	1.5869828	0.85917536	-0.10783999	1.5639656	0.84457972	0.13815257	1.3889378	0.92299639	0.0074182141	1.504149	1.3292386	-0.17922106	1.4957427	1.3297677	0.18489471	1.4210543	1.3653402	-0.0010571144	1.4420551	1.0165343	-0.22612772	1.4142611	1.0184856	0.24347611	1.5691906	0.80966836	-0.25448268	1.5608436	0.82586008	0.27447009
486	1.94	1.646168	0.033626338	-0.056333813	1.3488598	0.082667944	0.12781164	1.5238801	0.067606721	-0.083994431	1.295328	0.20758861	0.14452801	1.5185849	0.080979397	0.0031031468	1.3341208	0.20534762	0.06501479	1.4451515	0.042211414	-0.044258117	1.2528082	0.23708456	0.077144432	1.6217092	0.43125473	-0.089849693	1.5953814	0.43413513	0.18712571	1.5852424	0.42818884	0.025612008	1.6047738	0.41227342	0.052170823	1.5308387	0.81897228	-0.16213302	1.4771309	0.78380911	0.17809565	1.5924237	0.86057193	-0.10809802	1.5696556	0.8466494	0.13785188	1.3935473	0.92466151	0.0071332419	1.5102031	1.3311621	-0.17913516	1.5011193	1.3312406	0.18490911	1.4265564	1.3667502	-0.0012274808	1.4497594	1.0180028	-0.22678261	1.4180412	1.0204487	0.24298101	1.5797109	0.81239046	-0.25368767	1.5625183	0.82664728	0.27528786
487	1.944	1.6461727	0.033627831	-0.056301563	1.3666078	0.082023524	0.12836805	1.5239022	0.067745882	-0.083936475	1.3095832	0.20535474	0.14388252	1.5172511	0.081018198	0.0034250292	1.3486103	0.20357095	0.064484843	1.4451916	0.042433325	-0.044186587	1.2663961	0.23337164	0.07616846	1.6226128	0.43113545	-0.089545621	1.6056778	0.43725438	0.18699666	1.5852884	0.42836083	0.025886469	1.6163998	0.41611221	0.052150684	1.5361837	0.81993792	-0.1622892	1.4834569	0.78596888	0.17835876	1.5978814	0.86195602	-0.10835258	1.5753665	0.84870982	0.13751856	1.3978536	0.92628178	0.0068948353	1.5162908	1.333091	-0.1790623	1.5064803	1.3326197	0.18487922	1.4320484	1.3681156	-0.0014005623	1.4574642	1.0194426	-0.22745711	1.4217428	1.0223732	0.24248625	1.590334	0.81513193	-0.25286731	1.5643121	0.82744803	0.27607913
488	1.948	1.6461882	0.033630265	-0.05627762	1.3846272	0.081321362	0.12890294	1.5239318	0.067891712	-0.083887911	1.3238978	0.2029397	0.14328234	1.5165847	0.081134074	0.0036287482	1.3631764	0.20167488	0.063942171	1.4452387	0.04266106	-0.044113961	1.2801083	0.22944541	0.075273565	1.6234774	0.43102517	-0.089282165	1.6158883	0.44032084	0.18682912	1.5851274	0.42859247	0.026194203	1.6276754	0.42008706	0.052096609	1.5413529	0.82085473	-0.16246589	1.4898223	0.78810586	0.1786267	1.6033681	0.86331135	-0.10860178	1.58111	0.85075081	0.13715951	1.4023671	0.92773528	0.0066762358	1.5224435	1.3350531	-0.17901469	1.5118107	1.3339107	0.18480824	1.4375307	1.3694357	-0.0015724326	1.4651663	1.020851	-0.2281374	1.4253963	1.0242505	0.24200822	1.6009234	0.81790155	-0.25203361	1.5662176	0.82825669	0.27684865
489	1.952	1.6462126	0.033633836	-0.056261082	1.4029286	0.080569378	0.12942395	1.523967	0.068047394	-0.083846574	1.3382689	0.20036802	0.14273324	1.5164365	0.081311882	0.003723323	1.3778294	0.19967512	0.063355262	1.4452921	0.04288816	-0.044037935	1.2939342	0.22531199	0.074468113	1.6242982	0.43092738	-0.089065798	1.6260244	0.44332612	0.1866231	1.5849845	0.42883536	0.026475345	1.6383569	0.42405954	0.051927204	1.5465287	0.82171121	-0.16259671	1.4963649	0.79018097	0.17891094	1.6088806	0.86462845	-0.10884345	1.5869109	0.8527652	0.13678767	1.4073276	0.92900796	0.0064689991	1.5286571	1.3370318	-0.17898682	1.5171121	1.3351395	0.1847184	1.4430018	1.3706987	-0.0017413632	1.4728614	1.0222263	-0.22881733	1.4290129	1.0260771	0.24156026	1.6113384	0.82071118	-0.25119346	1.5681614	0.82906458	0.27761112
490	1.956	1.6462433	0.033639169	-0.056250976	1.4213478	0.079754902	0.12992407	1.5240057	0.068214136	-0.083811418	1.3527204	0.19765096	0.14223268	1.5164889	0.081528169	0.0037650529	1.3925834	0.19756654	0.062731813	1.4453462	0.04311911	-0.043957262	1.307879	0.22098758	0.073737788	1.6250829	0.43084674	-0.088896235	1.6360943	0.44625834	0.18638581	1.5850818	0.42904842	0.026671344	1.6485483	0.42792164	0.051622753	1.5517647	0.82251619	-0.16266882	1.5032635	0.79214282	0.1792179	1.6143897	0.86590649	-0.10907964	1.5927945	0.85475002	0.13641442	1.4126354	0.93016287	0.0062848864	1.5348784	1.338954	-0.17895458	1.5223928	1.3363231	0.18462694	1.448467	1.3718953	-0.0019028905	1.480549	1.0235618	-0.22949979	1.4325802	1.0278452	0.24114503	1.6215497	0.82355537	-0.25034411	1.5700796	0.82986129	0.2783837
491	1.96	1.6462781	0.033646816	-0.056246317	1.4396817	0.078856472	0.13039685	1.524048	0.068390066	-0.083782907	1.3672842	0.19478692	0.14177282	1.5165845	0.081761812	0.0037867749	1.4074547	0.19531587	0.06214161	1.4453926	0.043367017	-0.043872188	1.3219539	0.21649247	0.073056045	1.6258471	0.43078785	-0.088770506	1.6460933	0.44910776	0.18612304	1.585465	0.42923566	0.026773282	1.6584293	0.43164133	0.05126872	1.5570235	0.82327709	-0.16270415	1.5106171	0.7939534	0.17952061	1.6198555	0.86714613	-0.10931534	1.5987665	0.85670173	0.13604158	1.4180757	0.93125555	0.0061338022	1.5410494	1.3407511	-0.17889836	1.5276649	1.3374557	0.18454152	1.4539362	1.3730286	-0.0020535772	1.4882317	1.024849	-0.23018984	1.4360613	1.0295458	0.2407461	1.631666	0.82640858	-0.24947176	1.5719763	0.83063872	0.27917462
492	1.964	1.6463154	0.033656054	-0.056246935	1.4578438	0.077866996	0.1308548	1.5240952	0.068571805	-0.083763166	1.3819704	0.19177047	0.14134352	1.5167282	0.082000466	0.0037894925	1.4224504	0.19289632	0.061651353	1.4454311	0.043643441	-0.043788287	1.336167	0.21183938	0.072414559	1.6265911	0.43075261	-0.0886928	1.6560068	0.45187347	0.18583376	1.5860534	0.42942524	0.026807578	1.6680688	0.43522413	0.050969575	1.5622707	0.82398831	-0.16271806	1.5183731	0.79562015	0.17977389	1.6252524	0.86834349	-0.10955418	1.604797	0.85861208	0.13566219	1.4235177	0.93230343	0.0060099316	1.5471538	1.3424134	-0.17882116	1.5329375	1.3385208	0.18446261	1.4594107	1.3741037	-0.0022012375	1.4959063	1.0260873	-0.23089154	1.4394047	1.0311826	0.24033282	1.6418372	0.82924389	-0.24856173	1.5738797	0.83139095	0.27997881
493	1.968	1.6463542	0.033664943	-0.056253366	1.4757958	0.076784853	0.13132598	1.5241464	0.068758056	-0.083753589	1.3967686	0.18859936	0.14093886	1.5169404	0.082243953	0.0037691778	1.437559	0.19032353	0.061258062	1.4454756	0.043949205	-0.043714038	1.3505598	0.20703305	0.07183519	1.627301	0.43073859	-0.08867119	1.6658132	0.45456426	0.18551339	1.5867655	0.42963855	0.026805268	1.6774849	0.43867999	0.050754089	1.5674603	0.82463543	-0.16271599	1.5263268	0.79719469	0.17995657	1.6305719	0.86949294	-0.10979676	1.6108299	0.86047127	0.13526847	1.4289522	0.93329932	0.0059010491	1.553207	1.3439683	-0.17873767	1.5382124	1.3395082	0.18438857	1.4648809	1.3751178	-0.0023608194	1.5035652	1.0272821	-0.23160624	1.4426214	1.0327611	0.23988733	1.6521591	0.8320459	-0.2476058	1.5757955	0.8321139	0.28078671
494	1.972	1.6463947	0.033671141	-0.056265176	1.4935158	0.07560298	0.13183681	1.5241985	0.068951805	-0.083751398	1.411674	0.18527618	0.14056199	1.5171808	0.082504617	0.003735226	1.4527526	0.18763844	0.060913929	1.4455414	0.044275306	-0.043651779	1.3651936	0.20207952	0.071345128	1.6279701	0.43073979	-0.088707473	1.6754881	0.45719288	0.18515819	1.5875619	0.42988338	0.026790905	1.6867084	0.44202745	0.050590008	1.5725003	0.82521043	-0.16271095	1.5341604	0.79872311	0.18008211	1.6358228	0.87058873	-0.11004101	1.6168162	0.86227352	0.13485757	1.4344281	0.93423019	0.0058049974	1.5592266	1.345438	-0.17865325	1.5434881	1.3404193	0.18432163	1.4703414	1.3760677	-0.002535344	1.5112119	1.0284349	-0.23233686	1.4458627	1.034273	0.23942919	1.6626715	0.83480694	-0.24659834	1.5777205	0.83280548	0.2815945
495	1.976	1.6464361	0.033672039	-0.05627982	1.5111479	0.074328725	0.13238952	1.5242503	0.069158948	-0.083749109	1.4267067	0.18180783	0.14022017	1.5173867	0.082798803	0.0037054953	1.4680028	0.18486694	0.060586792	1.4456302	0.044611785	-0.043593418	1.3799846	0.19699612	0.070953148	1.6286034	0.43075063	-0.08879738	1.685016	0.45976509	0.1847669	1.5884372	0.43015747	0.026776757	1.6957687	0.44528572	0.050450348	1.5773025	0.82572078	-0.16272628	1.5415355	0.80021534	0.18018026	1.6410336	0.87161968	-0.11028357	1.6227464	0.8640157	0.13443272	1.4399926	0.93509562	0.005729103	1.5652246	1.3468281	-0.17856145	1.5487566	1.3412586	0.1842673	1.4758007	1.3769571	-0.0027084824	1.5188683	1.0295346	-0.23309081	1.4493296	1.035704	0.23900176	1.6733418	0.83752712	-0.24553985	1.5796577	0.83346341	0.28240381
